<?xml version="1.0" encoding="UTF-8" standalone="no"?>
<!DOCTYPE svg PUBLIC "-//W3C//DTD SVG 1.1//EN"
 "http://www.w3.org/Graphics/SVG/1.1/DTD/svg11.dtd">
<!-- Generated by graphviz version 2.38.0 (20140413.2041)
 -->
<!-- Title: controllers_diagram Pages: 1 -->
<svg width="920pt" height="946pt"
 viewBox="0.00 0.00 919.50 945.50" xmlns="http://www.w3.org/2000/svg" xmlns:xlink="http://www.w3.org/1999/xlink">
<g id="graph0" class="graph" transform="scale(1 1) rotate(0) translate(418 527.5)">
<title>controllers_diagram</title>
<polygon fill="none" stroke="none" points="-418,418 -418,-527.5 501.5,-527.5 501.5,418 -418,418"/>
<!-- _diagram_info -->
<g id="node1" class="node"><title>_diagram_info</title>
<text text-anchor="start" x="-352" y="296.4" font-family="Times,serif" font-size="13.00">Controllers diagram</text>
<text text-anchor="start" x="-352" y="310.4" font-family="Times,serif" font-size="13.00">Date: Jun 05 2016 &#45; 17:27</text>
<text text-anchor="start" x="-352" y="324.4" font-family="Times,serif" font-size="13.00">Migration version: 20160522201610</text>
<text text-anchor="start" x="-352" y="338.4" font-family="Times,serif" font-size="13.00">Generated by RailRoady 1.3.1</text>
<text text-anchor="start" x="-352" y="352.4" font-family="Times,serif" font-size="13.00">http://railroady.prestonlee.com</text>
</g>
<!-- SubjectiveTextualsController -->
<g id="node2" class="node"><title>SubjectiveTextualsController</title>
<path fill="none" stroke="black" d="M-78,107.5C-78,107.5 74,107.5 74,107.5 80,107.5 86,101.5 86,95.5 86,95.5 86,-93.5 86,-93.5 86,-99.5 80,-105.5 74,-105.5 74,-105.5 -78,-105.5 -78,-105.5 -84,-105.5 -90,-99.5 -90,-93.5 -90,-93.5 -90,95.5 -90,95.5 -90,101.5 -84,107.5 -78,107.5"/>
<text text-anchor="middle" x="-2" y="-90.3" font-family="Times,serif" font-size="14.00">SubjectiveTextualsController</text>
<polyline fill="none" stroke="black" points="-90,-82.5 86,-82.5 "/>
<text text-anchor="start" x="-82" y="-67.3" font-family="Times,serif" font-size="14.00">create</text>
<text text-anchor="start" x="-82" y="-52.3" font-family="Times,serif" font-size="14.00">destroy</text>
<text text-anchor="start" x="-82" y="-37.3" font-family="Times,serif" font-size="14.00">edit</text>
<text text-anchor="start" x="-82" y="-22.3" font-family="Times,serif" font-size="14.00">index</text>
<text text-anchor="start" x="-82" y="-7.3" font-family="Times,serif" font-size="14.00">new</text>
<text text-anchor="start" x="-82" y="7.7" font-family="Times,serif" font-size="14.00">show</text>
<text text-anchor="start" x="-82" y="22.7" font-family="Times,serif" font-size="14.00">update</text>
<polyline fill="none" stroke="black" points="-90,30.5 86,30.5 "/>
<polyline fill="none" stroke="black" points="-90,54.5 86,54.5 "/>
<text text-anchor="start" x="-82" y="69.7" font-family="Times,serif" font-size="14.00">_layout</text>
<text text-anchor="start" x="-82" y="84.7" font-family="Times,serif" font-size="14.00">set_subjective_textual</text>
<text text-anchor="start" x="-82" y="99.7" font-family="Times,serif" font-size="14.00">subjective_textual_params</text>
</g>
<!-- LineBadgesController -->
<g id="node3" class="node"><title>LineBadgesController</title>
<path fill="none" stroke="black" d="M174.5,-163C174.5,-163 287.5,-163 287.5,-163 293.5,-163 299.5,-169 299.5,-175 299.5,-175 299.5,-379 299.5,-379 299.5,-385 293.5,-391 287.5,-391 287.5,-391 174.5,-391 174.5,-391 168.5,-391 162.5,-385 162.5,-379 162.5,-379 162.5,-175 162.5,-175 162.5,-169 168.5,-163 174.5,-163"/>
<text text-anchor="middle" x="231" y="-375.8" font-family="Times,serif" font-size="14.00">LineBadgesController</text>
<polyline fill="none" stroke="black" points="162.5,-368 299.5,-368 "/>
<text text-anchor="start" x="170.5" y="-352.8" font-family="Times,serif" font-size="14.00">badge_wall_share</text>
<text text-anchor="start" x="170.5" y="-337.8" font-family="Times,serif" font-size="14.00">create</text>
<text text-anchor="start" x="170.5" y="-322.8" font-family="Times,serif" font-size="14.00">destroy</text>
<text text-anchor="start" x="170.5" y="-307.8" font-family="Times,serif" font-size="14.00">edit</text>
<text text-anchor="start" x="170.5" y="-292.8" font-family="Times,serif" font-size="14.00">index</text>
<text text-anchor="start" x="170.5" y="-277.8" font-family="Times,serif" font-size="14.00">new</text>
<text text-anchor="start" x="170.5" y="-262.8" font-family="Times,serif" font-size="14.00">show</text>
<text text-anchor="start" x="170.5" y="-247.8" font-family="Times,serif" font-size="14.00">update</text>
<polyline fill="none" stroke="black" points="162.5,-240 299.5,-240 "/>
<polyline fill="none" stroke="black" points="162.5,-216 299.5,-216 "/>
<text text-anchor="start" x="170.5" y="-200.8" font-family="Times,serif" font-size="14.00">_layout</text>
<text text-anchor="start" x="170.5" y="-185.8" font-family="Times,serif" font-size="14.00">line_badge_params</text>
<text text-anchor="start" x="170.5" y="-170.8" font-family="Times,serif" font-size="14.00">set_line_badge</text>
</g>
<!-- DoneLessonsController -->
<g id="node4" class="node"><title>DoneLessonsController</title>
<path fill="none" stroke="black" d="M-257.5,-0.5C-257.5,-0.5 -136.5,-0.5 -136.5,-0.5 -130.5,-0.5 -124.5,-6.5 -124.5,-12.5 -124.5,-12.5 -124.5,-201.5 -124.5,-201.5 -124.5,-207.5 -130.5,-213.5 -136.5,-213.5 -136.5,-213.5 -257.5,-213.5 -257.5,-213.5 -263.5,-213.5 -269.5,-207.5 -269.5,-201.5 -269.5,-201.5 -269.5,-12.5 -269.5,-12.5 -269.5,-6.5 -263.5,-0.5 -257.5,-0.5"/>
<text text-anchor="middle" x="-197" y="-198.3" font-family="Times,serif" font-size="14.00">DoneLessonsController</text>
<polyline fill="none" stroke="black" points="-269.5,-190.5 -124.5,-190.5 "/>
<text text-anchor="start" x="-261.5" y="-175.3" font-family="Times,serif" font-size="14.00">create</text>
<text text-anchor="start" x="-261.5" y="-160.3" font-family="Times,serif" font-size="14.00">destroy</text>
<text text-anchor="start" x="-261.5" y="-145.3" font-family="Times,serif" font-size="14.00">edit</text>
<text text-anchor="start" x="-261.5" y="-130.3" font-family="Times,serif" font-size="14.00">index</text>
<text text-anchor="start" x="-261.5" y="-115.3" font-family="Times,serif" font-size="14.00">new</text>
<text text-anchor="start" x="-261.5" y="-100.3" font-family="Times,serif" font-size="14.00">show</text>
<text text-anchor="start" x="-261.5" y="-85.3" font-family="Times,serif" font-size="14.00">update</text>
<polyline fill="none" stroke="black" points="-269.5,-77.5 -124.5,-77.5 "/>
<polyline fill="none" stroke="black" points="-269.5,-53.5 -124.5,-53.5 "/>
<text text-anchor="start" x="-261.5" y="-38.3" font-family="Times,serif" font-size="14.00">_layout</text>
<text text-anchor="start" x="-261.5" y="-23.3" font-family="Times,serif" font-size="14.00">done_lesson_params</text>
<text text-anchor="start" x="-261.5" y="-8.3" font-family="Times,serif" font-size="14.00">set_done_lesson</text>
</g>
<!-- MainController -->
<g id="node5" class="node"><title>MainController</title>
<path fill="none" stroke="black" d="M408.5,413.5C408.5,413.5 485.5,413.5 485.5,413.5 491.5,413.5 497.5,407.5 497.5,401.5 497.5,401.5 497.5,332.5 497.5,332.5 497.5,326.5 491.5,320.5 485.5,320.5 485.5,320.5 408.5,320.5 408.5,320.5 402.5,320.5 396.5,326.5 396.5,332.5 396.5,332.5 396.5,401.5 396.5,401.5 396.5,407.5 402.5,413.5 408.5,413.5"/>
<text text-anchor="middle" x="447" y="335.7" font-family="Times,serif" font-size="14.00">MainController</text>
<polyline fill="none" stroke="black" points="396.5,343.5 497.5,343.5 "/>
<text text-anchor="start" x="404.5" y="358.7" font-family="Times,serif" font-size="14.00">index</text>
<polyline fill="none" stroke="black" points="396.5,366.5 497.5,366.5 "/>
<polyline fill="none" stroke="black" points="396.5,390.5 497.5,390.5 "/>
<text text-anchor="start" x="404.5" y="405.7" font-family="Times,serif" font-size="14.00">_layout</text>
</g>
<!-- AdminController -->
<g id="node6" class="node"><title>AdminController</title>
<path fill="none" stroke="black" d="M-402,-415C-402,-415 -316,-415 -316,-415 -310,-415 -304,-421 -304,-427 -304,-427 -304,-511 -304,-511 -304,-517 -310,-523 -316,-523 -316,-523 -402,-523 -402,-523 -408,-523 -414,-517 -414,-511 -414,-511 -414,-427 -414,-427 -414,-421 -408,-415 -402,-415"/>
<text text-anchor="middle" x="-359" y="-507.8" font-family="Times,serif" font-size="14.00">AdminController</text>
<polyline fill="none" stroke="black" points="-414,-500 -304,-500 "/>
<text text-anchor="start" x="-406" y="-484.8" font-family="Times,serif" font-size="14.00">admin_check</text>
<text text-anchor="start" x="-406" y="-469.8" font-family="Times,serif" font-size="14.00">index</text>
<polyline fill="none" stroke="black" points="-414,-462 -304,-462 "/>
<polyline fill="none" stroke="black" points="-414,-438 -304,-438 "/>
<text text-anchor="start" x="-406" y="-422.8" font-family="Times,serif" font-size="14.00">_layout</text>
</g>
<!-- BadgesController -->
<g id="node7" class="node"><title>BadgesController</title>
<path fill="none" stroke="black" d="M-78,359.5C-78,359.5 10,359.5 10,359.5 16,359.5 22,353.5 22,347.5 22,347.5 22,158.5 22,158.5 22,152.5 16,146.5 10,146.5 10,146.5 -78,146.5 -78,146.5 -84,146.5 -90,152.5 -90,158.5 -90,158.5 -90,347.5 -90,347.5 -90,353.5 -84,359.5 -78,359.5"/>
<text text-anchor="middle" x="-34" y="161.7" font-family="Times,serif" font-size="14.00">BadgesController</text>
<polyline fill="none" stroke="black" points="-90,169.5 22,169.5 "/>
<text text-anchor="start" x="-82" y="184.7" font-family="Times,serif" font-size="14.00">create</text>
<text text-anchor="start" x="-82" y="199.7" font-family="Times,serif" font-size="14.00">destroy</text>
<text text-anchor="start" x="-82" y="214.7" font-family="Times,serif" font-size="14.00">edit</text>
<text text-anchor="start" x="-82" y="229.7" font-family="Times,serif" font-size="14.00">index</text>
<text text-anchor="start" x="-82" y="244.7" font-family="Times,serif" font-size="14.00">new</text>
<text text-anchor="start" x="-82" y="259.7" font-family="Times,serif" font-size="14.00">show</text>
<text text-anchor="start" x="-82" y="274.7" font-family="Times,serif" font-size="14.00">update</text>
<polyline fill="none" stroke="black" points="-90,282.5 22,282.5 "/>
<polyline fill="none" stroke="black" points="-90,306.5 22,306.5 "/>
<text text-anchor="start" x="-82" y="321.7" font-family="Times,serif" font-size="14.00">_layout</text>
<text text-anchor="start" x="-82" y="336.7" font-family="Times,serif" font-size="14.00">badge_params</text>
<text text-anchor="start" x="-82" y="351.7" font-family="Times,serif" font-size="14.00">set_badge</text>
</g>
<!-- StoreController -->
<g id="node8" class="node"><title>StoreController</title>
<path fill="none" stroke="black" d="M-401.5,-288.5C-401.5,-288.5 -324.5,-288.5 -324.5,-288.5 -318.5,-288.5 -312.5,-294.5 -312.5,-300.5 -312.5,-300.5 -312.5,-369.5 -312.5,-369.5 -312.5,-375.5 -318.5,-381.5 -324.5,-381.5 -324.5,-381.5 -401.5,-381.5 -401.5,-381.5 -407.5,-381.5 -413.5,-375.5 -413.5,-369.5 -413.5,-369.5 -413.5,-300.5 -413.5,-300.5 -413.5,-294.5 -407.5,-288.5 -401.5,-288.5"/>
<text text-anchor="middle" x="-363" y="-366.3" font-family="Times,serif" font-size="14.00">StoreController</text>
<polyline fill="none" stroke="black" points="-413.5,-358.5 -312.5,-358.5 "/>
<text text-anchor="start" x="-405.5" y="-343.3" font-family="Times,serif" font-size="14.00">index</text>
<polyline fill="none" stroke="black" points="-413.5,-335.5 -312.5,-335.5 "/>
<polyline fill="none" stroke="black" points="-413.5,-311.5 -312.5,-311.5 "/>
<text text-anchor="start" x="-405.5" y="-296.3" font-family="Times,serif" font-size="14.00">_layout</text>
</g>
<!-- ApplicationController -->
<g id="node9" class="node"><title>ApplicationController</title>
<path fill="none" stroke="black" d="M228,413.5C228,413.5 340,413.5 340,413.5 346,413.5 352,407.5 352,401.5 352,401.5 352,332.5 352,332.5 352,326.5 346,320.5 340,320.5 340,320.5 228,320.5 228,320.5 222,320.5 216,326.5 216,332.5 216,332.5 216,401.5 216,401.5 216,407.5 222,413.5 228,413.5"/>
<text text-anchor="middle" x="284" y="335.7" font-family="Times,serif" font-size="14.00">ApplicationController</text>
<polyline fill="none" stroke="black" points="216,343.5 352,343.5 "/>
<text text-anchor="start" x="224" y="358.7" font-family="Times,serif" font-size="14.00">getCharacter</text>
<polyline fill="none" stroke="black" points="216,366.5 352,366.5 "/>
<polyline fill="none" stroke="black" points="216,390.5 352,390.5 "/>
<text text-anchor="start" x="224" y="405.7" font-family="Times,serif" font-size="14.00">_layout</text>
</g>
<!-- CharactersController -->
<g id="node10" class="node"><title>CharactersController</title>
<path fill="none" stroke="black" d="M138,125.5C138,125.5 244,125.5 244,125.5 250,125.5 256,119.5 256,113.5 256,113.5 256,-105.5 256,-105.5 256,-111.5 250,-117.5 244,-117.5 244,-117.5 138,-117.5 138,-117.5 132,-117.5 126,-111.5 126,-105.5 126,-105.5 126,113.5 126,113.5 126,119.5 132,125.5 138,125.5"/>
<text text-anchor="middle" x="191" y="-102.3" font-family="Times,serif" font-size="14.00">CharactersController</text>
<polyline fill="none" stroke="black" points="126,-94.5 256,-94.5 "/>
<text text-anchor="start" x="134" y="-79.3" font-family="Times,serif" font-size="14.00">addItem</text>
<text text-anchor="start" x="134" y="-64.3" font-family="Times,serif" font-size="14.00">create</text>
<text text-anchor="start" x="134" y="-49.3" font-family="Times,serif" font-size="14.00">destroy</text>
<text text-anchor="start" x="134" y="-34.3" font-family="Times,serif" font-size="14.00">edit</text>
<text text-anchor="start" x="134" y="-19.3" font-family="Times,serif" font-size="14.00">index</text>
<text text-anchor="start" x="134" y="-4.3" font-family="Times,serif" font-size="14.00">new</text>
<text text-anchor="start" x="134" y="10.7" font-family="Times,serif" font-size="14.00">removeItem</text>
<text text-anchor="start" x="134" y="25.7" font-family="Times,serif" font-size="14.00">show</text>
<text text-anchor="start" x="134" y="40.7" font-family="Times,serif" font-size="14.00">update</text>
<polyline fill="none" stroke="black" points="126,48.5 256,48.5 "/>
<polyline fill="none" stroke="black" points="126,72.5 256,72.5 "/>
<text text-anchor="start" x="134" y="87.7" font-family="Times,serif" font-size="14.00">_layout</text>
<text text-anchor="start" x="134" y="102.7" font-family="Times,serif" font-size="14.00">character_params</text>
<text text-anchor="start" x="134" y="117.7" font-family="Times,serif" font-size="14.00">set_character</text>
</g>
<!-- ObjectiveTextualsController -->
<g id="node11" class="node"><title>ObjectiveTextualsController</title>
<path fill="none" stroke="black" d="M-59.5,-144.5C-59.5,-144.5 87.5,-144.5 87.5,-144.5 93.5,-144.5 99.5,-150.5 99.5,-156.5 99.5,-156.5 99.5,-345.5 99.5,-345.5 99.5,-351.5 93.5,-357.5 87.5,-357.5 87.5,-357.5 -59.5,-357.5 -59.5,-357.5 -65.5,-357.5 -71.5,-351.5 -71.5,-345.5 -71.5,-345.5 -71.5,-156.5 -71.5,-156.5 -71.5,-150.5 -65.5,-144.5 -59.5,-144.5"/>
<text text-anchor="middle" x="14" y="-342.3" font-family="Times,serif" font-size="14.00">ObjectiveTextualsController</text>
<polyline fill="none" stroke="black" points="-71.5,-334.5 99.5,-334.5 "/>
<text text-anchor="start" x="-63.5" y="-319.3" font-family="Times,serif" font-size="14.00">create</text>
<text text-anchor="start" x="-63.5" y="-304.3" font-family="Times,serif" font-size="14.00">destroy</text>
<text text-anchor="start" x="-63.5" y="-289.3" font-family="Times,serif" font-size="14.00">edit</text>
<text text-anchor="start" x="-63.5" y="-274.3" font-family="Times,serif" font-size="14.00">index</text>
<text text-anchor="start" x="-63.5" y="-259.3" font-family="Times,serif" font-size="14.00">new</text>
<text text-anchor="start" x="-63.5" y="-244.3" font-family="Times,serif" font-size="14.00">show</text>
<text text-anchor="start" x="-63.5" y="-229.3" font-family="Times,serif" font-size="14.00">update</text>
<polyline fill="none" stroke="black" points="-71.5,-221.5 99.5,-221.5 "/>
<polyline fill="none" stroke="black" points="-71.5,-197.5 99.5,-197.5 "/>
<text text-anchor="start" x="-63.5" y="-182.3" font-family="Times,serif" font-size="14.00">_layout</text>
<text text-anchor="start" x="-63.5" y="-167.3" font-family="Times,serif" font-size="14.00">objective_textual_params</text>
<text text-anchor="start" x="-63.5" y="-152.3" font-family="Times,serif" font-size="14.00">set_objective_textual</text>
</g>
<!-- QuizController -->
<g id="node12" class="node"><title>QuizController</title>
<path fill="none" stroke="black" d="M-384,-0.5C-384,-0.5 -310,-0.5 -310,-0.5 -304,-0.5 -298,-6.5 -298,-12.5 -298,-12.5 -298,-141.5 -298,-141.5 -298,-147.5 -304,-153.5 -310,-153.5 -310,-153.5 -384,-153.5 -384,-153.5 -390,-153.5 -396,-147.5 -396,-141.5 -396,-141.5 -396,-12.5 -396,-12.5 -396,-6.5 -390,-0.5 -384,-0.5"/>
<text text-anchor="middle" x="-347" y="-138.3" font-family="Times,serif" font-size="14.00">QuizController</text>
<polyline fill="none" stroke="black" points="-396,-130.5 -298,-130.5 "/>
<text text-anchor="start" x="-388" y="-115.3" font-family="Times,serif" font-size="14.00">answer</text>
<text text-anchor="start" x="-388" y="-100.3" font-family="Times,serif" font-size="14.00">catalog</text>
<text text-anchor="start" x="-388" y="-85.3" font-family="Times,serif" font-size="14.00">gerar_quiz</text>
<text text-anchor="start" x="-388" y="-70.3" font-family="Times,serif" font-size="14.00">index</text>
<text text-anchor="start" x="-388" y="-55.3" font-family="Times,serif" font-size="14.00">lesson_params</text>
<polyline fill="none" stroke="black" points="-396,-47.5 -298,-47.5 "/>
<polyline fill="none" stroke="black" points="-396,-23.5 -298,-23.5 "/>
<text text-anchor="start" x="-388" y="-8.3" font-family="Times,serif" font-size="14.00">_layout</text>
</g>
<!-- RegistrationsController -->
<g id="node13" class="node"><title>RegistrationsController</title>
<path fill="none" stroke="black" d="M-6,-396C-6,-396 118,-396 118,-396 124,-396 130,-402 130,-408 130,-408 130,-508 130,-508 130,-514 124,-520 118,-520 118,-520 -6,-520 -6,-520 -12,-520 -18,-514 -18,-508 -18,-508 -18,-408 -18,-408 -18,-402 -12,-396 -6,-396"/>
<text text-anchor="middle" x="56" y="-504.8" font-family="Times,serif" font-size="14.00">RegistrationsController</text>
<polyline fill="none" stroke="black" points="-18,-497 130,-497 "/>
<polyline fill="none" stroke="black" points="-18,-473 130,-473 "/>
<polyline fill="none" stroke="black" points="-18,-449 130,-449 "/>
<text text-anchor="start" x="-10" y="-433.8" font-family="Times,serif" font-size="14.00">_layout</text>
<text text-anchor="start" x="-10" y="-418.8" font-family="Times,serif" font-size="14.00">account_update_params</text>
<text text-anchor="start" x="-10" y="-403.8" font-family="Times,serif" font-size="14.00">sign_up_params</text>
</g>
<!-- ItemsController -->
<g id="node14" class="node"><title>ItemsController</title>
<path fill="none" stroke="black" d="M-383.5,251.5C-383.5,251.5 -304.5,251.5 -304.5,251.5 -298.5,251.5 -292.5,245.5 -292.5,239.5 -292.5,239.5 -292.5,50.5 -292.5,50.5 -292.5,44.5 -298.5,38.5 -304.5,38.5 -304.5,38.5 -383.5,38.5 -383.5,38.5 -389.5,38.5 -395.5,44.5 -395.5,50.5 -395.5,50.5 -395.5,239.5 -395.5,239.5 -395.5,245.5 -389.5,251.5 -383.5,251.5"/>
<text text-anchor="middle" x="-344" y="53.7" font-family="Times,serif" font-size="14.00">ItemsController</text>
<polyline fill="none" stroke="black" points="-395.5,61.5 -292.5,61.5 "/>
<text text-anchor="start" x="-387.5" y="76.7" font-family="Times,serif" font-size="14.00">create</text>
<text text-anchor="start" x="-387.5" y="91.7" font-family="Times,serif" font-size="14.00">destroy</text>
<text text-anchor="start" x="-387.5" y="106.7" font-family="Times,serif" font-size="14.00">edit</text>
<text text-anchor="start" x="-387.5" y="121.7" font-family="Times,serif" font-size="14.00">index</text>
<text text-anchor="start" x="-387.5" y="136.7" font-family="Times,serif" font-size="14.00">new</text>
<text text-anchor="start" x="-387.5" y="151.7" font-family="Times,serif" font-size="14.00">show</text>
<text text-anchor="start" x="-387.5" y="166.7" font-family="Times,serif" font-size="14.00">update</text>
<polyline fill="none" stroke="black" points="-395.5,174.5 -292.5,174.5 "/>
<polyline fill="none" stroke="black" points="-395.5,198.5 -292.5,198.5 "/>
<text text-anchor="start" x="-387.5" y="213.7" font-family="Times,serif" font-size="14.00">_layout</text>
<text text-anchor="start" x="-387.5" y="228.7" font-family="Times,serif" font-size="14.00">item_params</text>
<text text-anchor="start" x="-387.5" y="243.7" font-family="Times,serif" font-size="14.00">set_item</text>
</g>
<!-- LineItemsController -->
<g id="node15" class="node"><title>LineItemsController</title>
<path fill="none" stroke="black" d="M66,377.5C66,377.5 170,377.5 170,377.5 176,377.5 182,371.5 182,365.5 182,365.5 182,176.5 182,176.5 182,170.5 176,164.5 170,164.5 170,164.5 66,164.5 66,164.5 60,164.5 54,170.5 54,176.5 54,176.5 54,365.5 54,365.5 54,371.5 60,377.5 66,377.5"/>
<text text-anchor="middle" x="118" y="179.7" font-family="Times,serif" font-size="14.00">LineItemsController</text>
<polyline fill="none" stroke="black" points="54,187.5 182,187.5 "/>
<text text-anchor="start" x="62" y="202.7" font-family="Times,serif" font-size="14.00">create</text>
<text text-anchor="start" x="62" y="217.7" font-family="Times,serif" font-size="14.00">destroy</text>
<text text-anchor="start" x="62" y="232.7" font-family="Times,serif" font-size="14.00">edit</text>
<text text-anchor="start" x="62" y="247.7" font-family="Times,serif" font-size="14.00">index</text>
<text text-anchor="start" x="62" y="262.7" font-family="Times,serif" font-size="14.00">new</text>
<text text-anchor="start" x="62" y="277.7" font-family="Times,serif" font-size="14.00">show</text>
<text text-anchor="start" x="62" y="292.7" font-family="Times,serif" font-size="14.00">update</text>
<polyline fill="none" stroke="black" points="54,300.5 182,300.5 "/>
<polyline fill="none" stroke="black" points="54,324.5 182,324.5 "/>
<text text-anchor="start" x="62" y="339.7" font-family="Times,serif" font-size="14.00">_layout</text>
<text text-anchor="start" x="62" y="354.7" font-family="Times,serif" font-size="14.00">line_item_params</text>
<text text-anchor="start" x="62" y="369.7" font-family="Times,serif" font-size="14.00">set_line_item</text>
</g>
<!-- DragDropsController -->
<g id="node16" class="node"><title>DragDropsController</title>
<path fill="none" stroke="black" d="M-240,251.5C-240,251.5 -132,251.5 -132,251.5 -126,251.5 -120,245.5 -120,239.5 -120,239.5 -120,50.5 -120,50.5 -120,44.5 -126,38.5 -132,38.5 -132,38.5 -240,38.5 -240,38.5 -246,38.5 -252,44.5 -252,50.5 -252,50.5 -252,239.5 -252,239.5 -252,245.5 -246,251.5 -240,251.5"/>
<text text-anchor="middle" x="-186" y="53.7" font-family="Times,serif" font-size="14.00">DragDropsController</text>
<polyline fill="none" stroke="black" points="-252,61.5 -120,61.5 "/>
<text text-anchor="start" x="-244" y="76.7" font-family="Times,serif" font-size="14.00">create</text>
<text text-anchor="start" x="-244" y="91.7" font-family="Times,serif" font-size="14.00">destroy</text>
<text text-anchor="start" x="-244" y="106.7" font-family="Times,serif" font-size="14.00">edit</text>
<text text-anchor="start" x="-244" y="121.7" font-family="Times,serif" font-size="14.00">index</text>
<text text-anchor="start" x="-244" y="136.7" font-family="Times,serif" font-size="14.00">new</text>
<text text-anchor="start" x="-244" y="151.7" font-family="Times,serif" font-size="14.00">show</text>
<text text-anchor="start" x="-244" y="166.7" font-family="Times,serif" font-size="14.00">update</text>
<polyline fill="none" stroke="black" points="-252,174.5 -120,174.5 "/>
<polyline fill="none" stroke="black" points="-252,198.5 -120,198.5 "/>
<text text-anchor="start" x="-244" y="213.7" font-family="Times,serif" font-size="14.00">_layout</text>
<text text-anchor="start" x="-244" y="228.7" font-family="Times,serif" font-size="14.00">drag_drop_params</text>
<text text-anchor="start" x="-244" y="243.7" font-family="Times,serif" font-size="14.00">set_drag_drop</text>
</g>
<!-- LessonsController -->
<g id="node17" class="node"><title>LessonsController</title>
<path fill="none" stroke="black" d="M300,287C300,287 392,287 392,287 398,287 404,281 404,275 404,275 404,71 404,71 404,65 398,59 392,59 392,59 300,59 300,59 294,59 288,65 288,71 288,71 288,275 288,275 288,281 294,287 300,287"/>
<text text-anchor="middle" x="346" y="74.2" font-family="Times,serif" font-size="14.00">LessonsController</text>
<polyline fill="none" stroke="black" points="288,82 404,82 "/>
<text text-anchor="start" x="296" y="97.2" font-family="Times,serif" font-size="14.00">admin_check</text>
<text text-anchor="start" x="296" y="112.2" font-family="Times,serif" font-size="14.00">create</text>
<text text-anchor="start" x="296" y="127.2" font-family="Times,serif" font-size="14.00">destroy</text>
<text text-anchor="start" x="296" y="142.2" font-family="Times,serif" font-size="14.00">edit</text>
<text text-anchor="start" x="296" y="157.2" font-family="Times,serif" font-size="14.00">index</text>
<text text-anchor="start" x="296" y="172.2" font-family="Times,serif" font-size="14.00">new</text>
<text text-anchor="start" x="296" y="187.2" font-family="Times,serif" font-size="14.00">show</text>
<text text-anchor="start" x="296" y="202.2" font-family="Times,serif" font-size="14.00">update</text>
<polyline fill="none" stroke="black" points="288,210 404,210 "/>
<polyline fill="none" stroke="black" points="288,234 404,234 "/>
<text text-anchor="start" x="296" y="249.2" font-family="Times,serif" font-size="14.00">_layout</text>
<text text-anchor="start" x="296" y="264.2" font-family="Times,serif" font-size="14.00">lesson_params</text>
<text text-anchor="start" x="296" y="279.2" font-family="Times,serif" font-size="14.00">set_lesson</text>
</g>
<!-- InventoriesController -->
<g id="node18" class="node"><title>InventoriesController</title>
<path fill="none" stroke="black" d="M354.5,17.5C354.5,17.5 463.5,17.5 463.5,17.5 469.5,17.5 475.5,11.5 475.5,5.5 475.5,5.5 475.5,-183.5 475.5,-183.5 475.5,-189.5 469.5,-195.5 463.5,-195.5 463.5,-195.5 354.5,-195.5 354.5,-195.5 348.5,-195.5 342.5,-189.5 342.5,-183.5 342.5,-183.5 342.5,5.5 342.5,5.5 342.5,11.5 348.5,17.5 354.5,17.5"/>
<text text-anchor="middle" x="409" y="-180.3" font-family="Times,serif" font-size="14.00">InventoriesController</text>
<polyline fill="none" stroke="black" points="342.5,-172.5 475.5,-172.5 "/>
<text text-anchor="start" x="350.5" y="-157.3" font-family="Times,serif" font-size="14.00">create</text>
<text text-anchor="start" x="350.5" y="-142.3" font-family="Times,serif" font-size="14.00">destroy</text>
<text text-anchor="start" x="350.5" y="-127.3" font-family="Times,serif" font-size="14.00">edit</text>
<text text-anchor="start" x="350.5" y="-112.3" font-family="Times,serif" font-size="14.00">index</text>
<text text-anchor="start" x="350.5" y="-97.3" font-family="Times,serif" font-size="14.00">new</text>
<text text-anchor="start" x="350.5" y="-82.3" font-family="Times,serif" font-size="14.00">show</text>
<text text-anchor="start" x="350.5" y="-67.3" font-family="Times,serif" font-size="14.00">update</text>
<polyline fill="none" stroke="black" points="342.5,-59.5 475.5,-59.5 "/>
<polyline fill="none" stroke="black" points="342.5,-35.5 475.5,-35.5 "/>
<text text-anchor="start" x="350.5" y="-20.3" font-family="Times,serif" font-size="14.00">_layout</text>
<text text-anchor="start" x="350.5" y="-5.3" font-family="Times,serif" font-size="14.00">inventory_params</text>
<text text-anchor="start" x="350.5" y="9.7" font-family="Times,serif" font-size="14.00">set_inventory</text>
</g>
<!-- QuestionsController -->
<g id="node19" class="node"><title>QuestionsController</title>
<path fill="none" stroke="black" d="M354,-235C354,-235 456,-235 456,-235 462,-235 468,-241 468,-247 468,-247 468,-451 468,-451 468,-457 462,-463 456,-463 456,-463 354,-463 354,-463 348,-463 342,-457 342,-451 342,-451 342,-247 342,-247 342,-241 348,-235 354,-235"/>
<text text-anchor="middle" x="405" y="-447.8" font-family="Times,serif" font-size="14.00">QuestionsController</text>
<polyline fill="none" stroke="black" points="342,-440 468,-440 "/>
<text text-anchor="start" x="350" y="-424.8" font-family="Times,serif" font-size="14.00">admin_check</text>
<text text-anchor="start" x="350" y="-409.8" font-family="Times,serif" font-size="14.00">create</text>
<text text-anchor="start" x="350" y="-394.8" font-family="Times,serif" font-size="14.00">destroy</text>
<text text-anchor="start" x="350" y="-379.8" font-family="Times,serif" font-size="14.00">edit</text>
<text text-anchor="start" x="350" y="-364.8" font-family="Times,serif" font-size="14.00">index</text>
<text text-anchor="start" x="350" y="-349.8" font-family="Times,serif" font-size="14.00">new</text>
<text text-anchor="start" x="350" y="-334.8" font-family="Times,serif" font-size="14.00">show</text>
<text text-anchor="start" x="350" y="-319.8" font-family="Times,serif" font-size="14.00">update</text>
<polyline fill="none" stroke="black" points="342,-312 468,-312 "/>
<polyline fill="none" stroke="black" points="342,-288 468,-288 "/>
<text text-anchor="start" x="350" y="-272.8" font-family="Times,serif" font-size="14.00">_layout</text>
<text text-anchor="start" x="350" y="-257.8" font-family="Times,serif" font-size="14.00">question_params</text>
<text text-anchor="start" x="350" y="-242.8" font-family="Times,serif" font-size="14.00">set_question</text>
</g>
<!-- ObjectiveImagesController -->
<g id="node20" class="node"><title>ObjectiveImagesController</title>
<path fill="none" stroke="black" d="M-258,-270.5C-258,-270.5 -118,-270.5 -118,-270.5 -112,-270.5 -106,-276.5 -106,-282.5 -106,-282.5 -106,-471.5 -106,-471.5 -106,-477.5 -112,-483.5 -118,-483.5 -118,-483.5 -258,-483.5 -258,-483.5 -264,-483.5 -270,-477.5 -270,-471.5 -270,-471.5 -270,-282.5 -270,-282.5 -270,-276.5 -264,-270.5 -258,-270.5"/>
<text text-anchor="middle" x="-188" y="-468.3" font-family="Times,serif" font-size="14.00">ObjectiveImagesController</text>
<polyline fill="none" stroke="black" points="-270,-460.5 -106,-460.5 "/>
<text text-anchor="start" x="-262" y="-445.3" font-family="Times,serif" font-size="14.00">create</text>
<text text-anchor="start" x="-262" y="-430.3" font-family="Times,serif" font-size="14.00">destroy</text>
<text text-anchor="start" x="-262" y="-415.3" font-family="Times,serif" font-size="14.00">edit</text>
<text text-anchor="start" x="-262" y="-400.3" font-family="Times,serif" font-size="14.00">index</text>
<text text-anchor="start" x="-262" y="-385.3" font-family="Times,serif" font-size="14.00">new</text>
<text text-anchor="start" x="-262" y="-370.3" font-family="Times,serif" font-size="14.00">show</text>
<text text-anchor="start" x="-262" y="-355.3" font-family="Times,serif" font-size="14.00">update</text>
<polyline fill="none" stroke="black" points="-270,-347.5 -106,-347.5 "/>
<polyline fill="none" stroke="black" points="-270,-323.5 -106,-323.5 "/>
<text text-anchor="start" x="-262" y="-308.3" font-family="Times,serif" font-size="14.00">_layout</text>
<text text-anchor="start" x="-262" y="-293.3" font-family="Times,serif" font-size="14.00">objective_image_params</text>
<text text-anchor="start" x="-262" y="-278.3" font-family="Times,serif" font-size="14.00">set_objective_image</text>
</g>
</g>
</svg>
