<?xml version="1.0" encoding="UTF-8" standalone="no"?>
<!DOCTYPE svg PUBLIC "-//W3C//DTD SVG 1.1//EN"
 "http://www.w3.org/Graphics/SVG/1.1/DTD/svg11.dtd">
<!-- Generated by graphviz version 2.38.0 (20140413.2041)
 -->
<!-- Title: models_diagram Pages: 1 -->
<svg width="1813pt" height="641pt"
 viewBox="0.00 0.00 1812.50 641.00" xmlns="http://www.w3.org/2000/svg" xmlns:xlink="http://www.w3.org/1999/xlink">
<g id="graph0" class="graph" transform="scale(1 1) rotate(0) translate(4 637)">
<title>models_diagram</title>
<polygon fill="none" stroke="none" points="-4,4 -4,-637 1808.5,-637 1808.5,4 -4,4"/>
<!-- _diagram_info -->
<g id="node1" class="node"><title>_diagram_info</title>
<text text-anchor="start" x="8" y="-499.1" font-family="Times,serif" font-size="13.00">Models diagram</text>
<text text-anchor="start" x="8" y="-485.1" font-family="Times,serif" font-size="13.00">Date: Jun 05 2016 &#45; 17:27</text>
<text text-anchor="start" x="8" y="-471.1" font-family="Times,serif" font-size="13.00">Migration version: 20160522201610</text>
<text text-anchor="start" x="8" y="-457.1" font-family="Times,serif" font-size="13.00">Generated by RailRoady 1.3.1</text>
<text text-anchor="start" x="8" y="-443.1" font-family="Times,serif" font-size="13.00">http://railroady.prestonlee.com</text>
</g>
<!-- ObjectiveTextual -->
<g id="node2" class="node"><title>ObjectiveTextual</title>
<path fill="none" stroke="black" d="M244.5,-391.5C244.5,-391.5 351.5,-391.5 351.5,-391.5 357.5,-391.5 363.5,-397.5 363.5,-403.5 363.5,-403.5 363.5,-545.5 363.5,-545.5 363.5,-551.5 357.5,-557.5 351.5,-557.5 351.5,-557.5 244.5,-557.5 244.5,-557.5 238.5,-557.5 232.5,-551.5 232.5,-545.5 232.5,-545.5 232.5,-403.5 232.5,-403.5 232.5,-397.5 238.5,-391.5 244.5,-391.5"/>
<text text-anchor="middle" x="298" y="-542.3" font-family="Times,serif" font-size="14.00">ObjectiveTextual</text>
<polyline fill="none" stroke="black" points="232.5,-534.5 363.5,-534.5 "/>
<text text-anchor="start" x="240.5" y="-519.3" font-family="Times,serif" font-size="14.00">id :integer</text>
<text text-anchor="start" x="240.5" y="-504.3" font-family="Times,serif" font-size="14.00">lesson :string</text>
<text text-anchor="start" x="240.5" y="-489.3" font-family="Times,serif" font-size="14.00">statement :string</text>
<text text-anchor="start" x="240.5" y="-474.3" font-family="Times,serif" font-size="14.00">a :string</text>
<text text-anchor="start" x="240.5" y="-459.3" font-family="Times,serif" font-size="14.00">b :string</text>
<text text-anchor="start" x="240.5" y="-444.3" font-family="Times,serif" font-size="14.00">c :string</text>
<text text-anchor="start" x="240.5" y="-429.3" font-family="Times,serif" font-size="14.00">d :string</text>
<text text-anchor="start" x="240.5" y="-414.3" font-family="Times,serif" font-size="14.00">created_at :datetime</text>
<text text-anchor="start" x="240.5" y="-399.3" font-family="Times,serif" font-size="14.00">updated_at :datetime</text>
</g>
<!-- DragDrop -->
<g id="node3" class="node"><title>DragDrop</title>
<path fill="none" stroke="black" d="M393.5,-361.5C393.5,-361.5 500.5,-361.5 500.5,-361.5 506.5,-361.5 512.5,-367.5 512.5,-373.5 512.5,-373.5 512.5,-575.5 512.5,-575.5 512.5,-581.5 506.5,-587.5 500.5,-587.5 500.5,-587.5 393.5,-587.5 393.5,-587.5 387.5,-587.5 381.5,-581.5 381.5,-575.5 381.5,-575.5 381.5,-373.5 381.5,-373.5 381.5,-367.5 387.5,-361.5 393.5,-361.5"/>
<text text-anchor="middle" x="447" y="-572.3" font-family="Times,serif" font-size="14.00">DragDrop</text>
<polyline fill="none" stroke="black" points="381.5,-564.5 512.5,-564.5 "/>
<text text-anchor="start" x="389.5" y="-549.3" font-family="Times,serif" font-size="14.00">id :integer</text>
<text text-anchor="start" x="389.5" y="-534.3" font-family="Times,serif" font-size="14.00">lesson :string</text>
<text text-anchor="start" x="389.5" y="-519.3" font-family="Times,serif" font-size="14.00">statement :string</text>
<text text-anchor="start" x="389.5" y="-504.3" font-family="Times,serif" font-size="14.00">a :string</text>
<text text-anchor="start" x="389.5" y="-489.3" font-family="Times,serif" font-size="14.00">b :string</text>
<text text-anchor="start" x="389.5" y="-474.3" font-family="Times,serif" font-size="14.00">c :string</text>
<text text-anchor="start" x="389.5" y="-459.3" font-family="Times,serif" font-size="14.00">d :string</text>
<text text-anchor="start" x="389.5" y="-444.3" font-family="Times,serif" font-size="14.00">atitle :string</text>
<text text-anchor="start" x="389.5" y="-429.3" font-family="Times,serif" font-size="14.00">btitle :string</text>
<text text-anchor="start" x="389.5" y="-414.3" font-family="Times,serif" font-size="14.00">ctitle :string</text>
<text text-anchor="start" x="389.5" y="-399.3" font-family="Times,serif" font-size="14.00">dtitle :string</text>
<text text-anchor="start" x="389.5" y="-384.3" font-family="Times,serif" font-size="14.00">created_at :datetime</text>
<text text-anchor="start" x="389.5" y="-369.3" font-family="Times,serif" font-size="14.00">updated_at :datetime</text>
</g>
<!-- Inventory -->
<g id="node4" class="node"><title>Inventory</title>
<path fill="none" stroke="black" d="M502.5,-166C502.5,-166 609.5,-166 609.5,-166 615.5,-166 621.5,-172 621.5,-178 621.5,-178 621.5,-245 621.5,-245 621.5,-251 615.5,-257 609.5,-257 609.5,-257 502.5,-257 502.5,-257 496.5,-257 490.5,-251 490.5,-245 490.5,-245 490.5,-178 490.5,-178 490.5,-172 496.5,-166 502.5,-166"/>
<text text-anchor="middle" x="556" y="-241.8" font-family="Times,serif" font-size="14.00">Inventory</text>
<polyline fill="none" stroke="black" points="490.5,-234 621.5,-234 "/>
<text text-anchor="start" x="498.5" y="-218.8" font-family="Times,serif" font-size="14.00">id :integer</text>
<text text-anchor="start" x="498.5" y="-203.8" font-family="Times,serif" font-size="14.00">user_id :integer</text>
<text text-anchor="start" x="498.5" y="-188.8" font-family="Times,serif" font-size="14.00">created_at :datetime</text>
<text text-anchor="start" x="498.5" y="-173.8" font-family="Times,serif" font-size="14.00">updated_at :datetime</text>
</g>
<!-- LineItem -->
<g id="node15" class="node"><title>LineItem</title>
<path fill="none" stroke="black" d="M427.5,-0.5C427.5,-0.5 534.5,-0.5 534.5,-0.5 540.5,-0.5 546.5,-6.5 546.5,-12.5 546.5,-12.5 546.5,-94.5 546.5,-94.5 546.5,-100.5 540.5,-106.5 534.5,-106.5 534.5,-106.5 427.5,-106.5 427.5,-106.5 421.5,-106.5 415.5,-100.5 415.5,-94.5 415.5,-94.5 415.5,-12.5 415.5,-12.5 415.5,-6.5 421.5,-0.5 427.5,-0.5"/>
<text text-anchor="middle" x="481" y="-91.3" font-family="Times,serif" font-size="14.00">LineItem</text>
<polyline fill="none" stroke="black" points="415.5,-83.5 546.5,-83.5 "/>
<text text-anchor="start" x="423.5" y="-68.3" font-family="Times,serif" font-size="14.00">id :integer</text>
<text text-anchor="start" x="423.5" y="-53.3" font-family="Times,serif" font-size="14.00">item_id :integer</text>
<text text-anchor="start" x="423.5" y="-38.3" font-family="Times,serif" font-size="14.00">inventory_id :integer</text>
<text text-anchor="start" x="423.5" y="-23.3" font-family="Times,serif" font-size="14.00">created_at :datetime</text>
<text text-anchor="start" x="423.5" y="-8.3" font-family="Times,serif" font-size="14.00">updated_at :datetime</text>
</g>
<!-- Inventory&#45;&gt;LineItem -->
<g id="edge1" class="edge"><title>Inventory&#45;&gt;LineItem</title>
<path fill="none" stroke="#8b1f85" d="M530.901,-158.293C524.343,-144.653 517.215,-129.827 510.453,-115.762"/>
<ellipse fill="none" stroke="#8b1f85" cx="532.775" cy="-162.192" rx="4.00002" ry="4.00002"/>
<polygon fill="#8b1f85" stroke="#8b1f85" points="510.405,-115.662 510.128,-104.7 508.239,-111.156 506.072,-106.65 506.072,-106.65 506.072,-106.65 508.239,-111.156 502.016,-108.6 510.405,-115.662 510.405,-115.662"/>
</g>
<!-- Question -->
<g id="node5" class="node"><title>Question</title>
<path fill="none" stroke="black" d="M761.5,-391.5C761.5,-391.5 868.5,-391.5 868.5,-391.5 874.5,-391.5 880.5,-397.5 880.5,-403.5 880.5,-403.5 880.5,-545.5 880.5,-545.5 880.5,-551.5 874.5,-557.5 868.5,-557.5 868.5,-557.5 761.5,-557.5 761.5,-557.5 755.5,-557.5 749.5,-551.5 749.5,-545.5 749.5,-545.5 749.5,-403.5 749.5,-403.5 749.5,-397.5 755.5,-391.5 761.5,-391.5"/>
<text text-anchor="middle" x="815" y="-542.3" font-family="Times,serif" font-size="14.00">Question</text>
<polyline fill="none" stroke="black" points="749.5,-534.5 880.5,-534.5 "/>
<text text-anchor="start" x="757.5" y="-519.3" font-family="Times,serif" font-size="14.00">id :integer</text>
<text text-anchor="start" x="757.5" y="-504.3" font-family="Times,serif" font-size="14.00">lesson :string</text>
<text text-anchor="start" x="757.5" y="-489.3" font-family="Times,serif" font-size="14.00">statement :text</text>
<text text-anchor="start" x="757.5" y="-474.3" font-family="Times,serif" font-size="14.00">a :string</text>
<text text-anchor="start" x="757.5" y="-459.3" font-family="Times,serif" font-size="14.00">b :string</text>
<text text-anchor="start" x="757.5" y="-444.3" font-family="Times,serif" font-size="14.00">c :string</text>
<text text-anchor="start" x="757.5" y="-429.3" font-family="Times,serif" font-size="14.00">d :string</text>
<text text-anchor="start" x="757.5" y="-414.3" font-family="Times,serif" font-size="14.00">created_at :datetime</text>
<text text-anchor="start" x="757.5" y="-399.3" font-family="Times,serif" font-size="14.00">updated_at :datetime</text>
</g>
<!-- ObjectiveImage -->
<g id="node6" class="node"><title>ObjectiveImage</title>
<path fill="none" stroke="black" d="M910.5,-399C910.5,-399 1017.5,-399 1017.5,-399 1023.5,-399 1029.5,-405 1029.5,-411 1029.5,-411 1029.5,-538 1029.5,-538 1029.5,-544 1023.5,-550 1017.5,-550 1017.5,-550 910.5,-550 910.5,-550 904.5,-550 898.5,-544 898.5,-538 898.5,-538 898.5,-411 898.5,-411 898.5,-405 904.5,-399 910.5,-399"/>
<text text-anchor="middle" x="964" y="-534.8" font-family="Times,serif" font-size="14.00">ObjectiveImage</text>
<polyline fill="none" stroke="black" points="898.5,-527 1029.5,-527 "/>
<text text-anchor="start" x="906.5" y="-511.8" font-family="Times,serif" font-size="14.00">id :integer</text>
<text text-anchor="start" x="906.5" y="-496.8" font-family="Times,serif" font-size="14.00">lesson :string</text>
<text text-anchor="start" x="906.5" y="-481.8" font-family="Times,serif" font-size="14.00">statement :string</text>
<text text-anchor="start" x="906.5" y="-466.8" font-family="Times,serif" font-size="14.00">aimg :string</text>
<text text-anchor="start" x="906.5" y="-451.8" font-family="Times,serif" font-size="14.00">bimg :string</text>
<text text-anchor="start" x="906.5" y="-436.8" font-family="Times,serif" font-size="14.00">cimg :string</text>
<text text-anchor="start" x="906.5" y="-421.8" font-family="Times,serif" font-size="14.00">created_at :datetime</text>
<text text-anchor="start" x="906.5" y="-406.8" font-family="Times,serif" font-size="14.00">updated_at :datetime</text>
</g>
<!-- SubjectiveTextual -->
<g id="node7" class="node"><title>SubjectiveTextual</title>
<path fill="none" stroke="black" d="M1059.5,-414C1059.5,-414 1166.5,-414 1166.5,-414 1172.5,-414 1178.5,-420 1178.5,-426 1178.5,-426 1178.5,-523 1178.5,-523 1178.5,-529 1172.5,-535 1166.5,-535 1166.5,-535 1059.5,-535 1059.5,-535 1053.5,-535 1047.5,-529 1047.5,-523 1047.5,-523 1047.5,-426 1047.5,-426 1047.5,-420 1053.5,-414 1059.5,-414"/>
<text text-anchor="middle" x="1113" y="-519.8" font-family="Times,serif" font-size="14.00">SubjectiveTextual</text>
<polyline fill="none" stroke="black" points="1047.5,-512 1178.5,-512 "/>
<text text-anchor="start" x="1055.5" y="-496.8" font-family="Times,serif" font-size="14.00">id :integer</text>
<text text-anchor="start" x="1055.5" y="-481.8" font-family="Times,serif" font-size="14.00">lesson :string</text>
<text text-anchor="start" x="1055.5" y="-466.8" font-family="Times,serif" font-size="14.00">statement :string</text>
<text text-anchor="start" x="1055.5" y="-451.8" font-family="Times,serif" font-size="14.00">answer :text</text>
<text text-anchor="start" x="1055.5" y="-436.8" font-family="Times,serif" font-size="14.00">created_at :datetime</text>
<text text-anchor="start" x="1055.5" y="-421.8" font-family="Times,serif" font-size="14.00">updated_at :datetime</text>
</g>
<!-- DoneLesson -->
<g id="node8" class="node"><title>DoneLesson</title>
<path fill="none" stroke="black" d="M1208.5,-414C1208.5,-414 1315.5,-414 1315.5,-414 1321.5,-414 1327.5,-420 1327.5,-426 1327.5,-426 1327.5,-523 1327.5,-523 1327.5,-529 1321.5,-535 1315.5,-535 1315.5,-535 1208.5,-535 1208.5,-535 1202.5,-535 1196.5,-529 1196.5,-523 1196.5,-523 1196.5,-426 1196.5,-426 1196.5,-420 1202.5,-414 1208.5,-414"/>
<text text-anchor="middle" x="1262" y="-519.8" font-family="Times,serif" font-size="14.00">DoneLesson</text>
<polyline fill="none" stroke="black" points="1196.5,-512 1327.5,-512 "/>
<text text-anchor="start" x="1204.5" y="-496.8" font-family="Times,serif" font-size="14.00">id :integer</text>
<text text-anchor="start" x="1204.5" y="-481.8" font-family="Times,serif" font-size="14.00">lesson_id :integer</text>
<text text-anchor="start" x="1204.5" y="-466.8" font-family="Times,serif" font-size="14.00">character_id :integer</text>
<text text-anchor="start" x="1204.5" y="-451.8" font-family="Times,serif" font-size="14.00">created_at :datetime</text>
<text text-anchor="start" x="1204.5" y="-436.8" font-family="Times,serif" font-size="14.00">updated_at :datetime</text>
<text text-anchor="start" x="1204.5" y="-421.8" font-family="Times,serif" font-size="14.00">score :integer</text>
</g>
<!-- Lesson -->
<g id="node9" class="node"><title>Lesson</title>
<path fill="none" stroke="black" d="M1357.5,-421.5C1357.5,-421.5 1464.5,-421.5 1464.5,-421.5 1470.5,-421.5 1476.5,-427.5 1476.5,-433.5 1476.5,-433.5 1476.5,-515.5 1476.5,-515.5 1476.5,-521.5 1470.5,-527.5 1464.5,-527.5 1464.5,-527.5 1357.5,-527.5 1357.5,-527.5 1351.5,-527.5 1345.5,-521.5 1345.5,-515.5 1345.5,-515.5 1345.5,-433.5 1345.5,-433.5 1345.5,-427.5 1351.5,-421.5 1357.5,-421.5"/>
<text text-anchor="middle" x="1411" y="-512.3" font-family="Times,serif" font-size="14.00">Lesson</text>
<polyline fill="none" stroke="black" points="1345.5,-504.5 1476.5,-504.5 "/>
<text text-anchor="start" x="1353.5" y="-489.3" font-family="Times,serif" font-size="14.00">id :integer</text>
<text text-anchor="start" x="1353.5" y="-474.3" font-family="Times,serif" font-size="14.00">url :string</text>
<text text-anchor="start" x="1353.5" y="-459.3" font-family="Times,serif" font-size="14.00">subject :string</text>
<text text-anchor="start" x="1353.5" y="-444.3" font-family="Times,serif" font-size="14.00">created_at :datetime</text>
<text text-anchor="start" x="1353.5" y="-429.3" font-family="Times,serif" font-size="14.00">updated_at :datetime</text>
</g>
<!-- User -->
<g id="node10" class="node"><title>User</title>
<path fill="none" stroke="black" d="M543,-316.5C543,-316.5 719,-316.5 719,-316.5 725,-316.5 731,-322.5 731,-328.5 731,-328.5 731,-620.5 731,-620.5 731,-626.5 725,-632.5 719,-632.5 719,-632.5 543,-632.5 543,-632.5 537,-632.5 531,-626.5 531,-620.5 531,-620.5 531,-328.5 531,-328.5 531,-322.5 537,-316.5 543,-316.5"/>
<text text-anchor="middle" x="631" y="-617.3" font-family="Times,serif" font-size="14.00">User</text>
<polyline fill="none" stroke="black" points="531,-609.5 731,-609.5 "/>
<text text-anchor="start" x="539" y="-594.3" font-family="Times,serif" font-size="14.00">id :integer</text>
<text text-anchor="start" x="539" y="-579.3" font-family="Times,serif" font-size="14.00">name :string</text>
<text text-anchor="start" x="539" y="-564.3" font-family="Times,serif" font-size="14.00">email :string</text>
<text text-anchor="start" x="539" y="-549.3" font-family="Times,serif" font-size="14.00">encrypted_password :string</text>
<text text-anchor="start" x="539" y="-534.3" font-family="Times,serif" font-size="14.00">reset_password_token :string</text>
<text text-anchor="start" x="539" y="-519.3" font-family="Times,serif" font-size="14.00">reset_password_sent_at :datetime</text>
<text text-anchor="start" x="539" y="-504.3" font-family="Times,serif" font-size="14.00">remember_created_at :datetime</text>
<text text-anchor="start" x="539" y="-489.3" font-family="Times,serif" font-size="14.00">sign_in_count :integer</text>
<text text-anchor="start" x="539" y="-474.3" font-family="Times,serif" font-size="14.00">current_sign_in_at :datetime</text>
<text text-anchor="start" x="539" y="-459.3" font-family="Times,serif" font-size="14.00">last_sign_in_at :datetime</text>
<text text-anchor="start" x="539" y="-444.3" font-family="Times,serif" font-size="14.00">current_sign_in_ip :string</text>
<text text-anchor="start" x="539" y="-429.3" font-family="Times,serif" font-size="14.00">last_sign_in_ip :string</text>
<text text-anchor="start" x="539" y="-414.3" font-family="Times,serif" font-size="14.00">confirmation_token :string</text>
<text text-anchor="start" x="539" y="-399.3" font-family="Times,serif" font-size="14.00">confirmed_at :datetime</text>
<text text-anchor="start" x="539" y="-384.3" font-family="Times,serif" font-size="14.00">confirmation_sent_at :datetime</text>
<text text-anchor="start" x="539" y="-369.3" font-family="Times,serif" font-size="14.00">unconfirmed_email :string</text>
<text text-anchor="start" x="539" y="-354.3" font-family="Times,serif" font-size="14.00">created_at :datetime</text>
<text text-anchor="start" x="539" y="-339.3" font-family="Times,serif" font-size="14.00">updated_at :datetime</text>
<text text-anchor="start" x="539" y="-324.3" font-family="Times,serif" font-size="14.00">admin :boolean</text>
</g>
<!-- User&#45;&gt;Inventory -->
<g id="edge2" class="edge"><title>User&#45;&gt;Inventory</title>
<path fill="none" stroke="#aed679" d="M583.546,-308.359C579.111,-292.926 574.876,-278.189 571.115,-265.1"/>
<ellipse fill="none" stroke="#aed679" cx="584.753" cy="-312.56" rx="4.00001" ry="4.00001"/>
<ellipse fill="#aed679" stroke="#aed679" cx="569.942" cy="-261.017" rx="4.00001" ry="4.00001"/>
</g>
<!-- LineBadge -->
<g id="node13" class="node"><title>LineBadge</title>
<path fill="none" stroke="black" d="M651.5,-151C651.5,-151 758.5,-151 758.5,-151 764.5,-151 770.5,-157 770.5,-163 770.5,-163 770.5,-260 770.5,-260 770.5,-266 764.5,-272 758.5,-272 758.5,-272 651.5,-272 651.5,-272 645.5,-272 639.5,-266 639.5,-260 639.5,-260 639.5,-163 639.5,-163 639.5,-157 645.5,-151 651.5,-151"/>
<text text-anchor="middle" x="705" y="-256.8" font-family="Times,serif" font-size="14.00">LineBadge</text>
<polyline fill="none" stroke="black" points="639.5,-249 770.5,-249 "/>
<text text-anchor="start" x="647.5" y="-233.8" font-family="Times,serif" font-size="14.00">id :integer</text>
<text text-anchor="start" x="647.5" y="-218.8" font-family="Times,serif" font-size="14.00">badge_id :integer</text>
<text text-anchor="start" x="647.5" y="-203.8" font-family="Times,serif" font-size="14.00">user_id :integer</text>
<text text-anchor="start" x="647.5" y="-188.8" font-family="Times,serif" font-size="14.00">created_at :datetime</text>
<text text-anchor="start" x="647.5" y="-173.8" font-family="Times,serif" font-size="14.00">updated_at :datetime</text>
<text text-anchor="start" x="647.5" y="-158.8" font-family="Times,serif" font-size="14.00">earner_email :string</text>
</g>
<!-- User&#45;&gt;LineBadge -->
<g id="edge3" class="edge"><title>User&#45;&gt;LineBadge</title>
<path fill="none" stroke="#72b5f7" d="M677.799,-308.439C680.387,-299.31 682.907,-290.424 685.301,-281.977"/>
<ellipse fill="none" stroke="#72b5f7" cx="676.632" cy="-312.556" rx="4.00001" ry="4.00001"/>
<polygon fill="#72b5f7" stroke="#72b5f7" points="685.324,-281.897 692.381,-273.504 686.688,-277.087 688.052,-272.276 688.052,-272.276 688.052,-272.276 686.688,-277.087 683.723,-271.049 685.324,-281.897 685.324,-281.897"/>
</g>
<!-- Badge -->
<g id="node11" class="node"><title>Badge</title>
<path fill="none" stroke="black" d="M1506.5,-399C1506.5,-399 1643.5,-399 1643.5,-399 1649.5,-399 1655.5,-405 1655.5,-411 1655.5,-411 1655.5,-538 1655.5,-538 1655.5,-544 1649.5,-550 1643.5,-550 1643.5,-550 1506.5,-550 1506.5,-550 1500.5,-550 1494.5,-544 1494.5,-538 1494.5,-538 1494.5,-411 1494.5,-411 1494.5,-405 1500.5,-399 1506.5,-399"/>
<text text-anchor="middle" x="1575" y="-534.8" font-family="Times,serif" font-size="14.00">Badge</text>
<polyline fill="none" stroke="black" points="1494.5,-527 1655.5,-527 "/>
<text text-anchor="start" x="1502.5" y="-511.8" font-family="Times,serif" font-size="14.00">id :integer</text>
<text text-anchor="start" x="1502.5" y="-496.8" font-family="Times,serif" font-size="14.00">issuer_url :string</text>
<text text-anchor="start" x="1502.5" y="-481.8" font-family="Times,serif" font-size="14.00">issuer_organization :string</text>
<text text-anchor="start" x="1502.5" y="-466.8" font-family="Times,serif" font-size="14.00">name :string</text>
<text text-anchor="start" x="1502.5" y="-451.8" font-family="Times,serif" font-size="14.00">description :string</text>
<text text-anchor="start" x="1502.5" y="-436.8" font-family="Times,serif" font-size="14.00">img_url :string</text>
<text text-anchor="start" x="1502.5" y="-421.8" font-family="Times,serif" font-size="14.00">created_at :datetime</text>
<text text-anchor="start" x="1502.5" y="-406.8" font-family="Times,serif" font-size="14.00">updated_at :datetime</text>
</g>
<!-- Character -->
<g id="node12" class="node"><title>Character</title>
<path fill="none" stroke="black" d="M1685.5,-324C1685.5,-324 1792.5,-324 1792.5,-324 1798.5,-324 1804.5,-330 1804.5,-336 1804.5,-336 1804.5,-613 1804.5,-613 1804.5,-619 1798.5,-625 1792.5,-625 1792.5,-625 1685.5,-625 1685.5,-625 1679.5,-625 1673.5,-619 1673.5,-613 1673.5,-613 1673.5,-336 1673.5,-336 1673.5,-330 1679.5,-324 1685.5,-324"/>
<text text-anchor="middle" x="1739" y="-609.8" font-family="Times,serif" font-size="14.00">Character</text>
<polyline fill="none" stroke="black" points="1673.5,-602 1804.5,-602 "/>
<text text-anchor="start" x="1681.5" y="-586.8" font-family="Times,serif" font-size="14.00">id :integer</text>
<text text-anchor="start" x="1681.5" y="-571.8" font-family="Times,serif" font-size="14.00">name :string</text>
<text text-anchor="start" x="1681.5" y="-556.8" font-family="Times,serif" font-size="14.00">xp :integer</text>
<text text-anchor="start" x="1681.5" y="-541.8" font-family="Times,serif" font-size="14.00">gold :integer</text>
<text text-anchor="start" x="1681.5" y="-526.8" font-family="Times,serif" font-size="14.00">hair :string</text>
<text text-anchor="start" x="1681.5" y="-511.8" font-family="Times,serif" font-size="14.00">skin :string</text>
<text text-anchor="start" x="1681.5" y="-496.8" font-family="Times,serif" font-size="14.00">shirt :string</text>
<text text-anchor="start" x="1681.5" y="-481.8" font-family="Times,serif" font-size="14.00">pants :string</text>
<text text-anchor="start" x="1681.5" y="-466.8" font-family="Times,serif" font-size="14.00">user_id :integer</text>
<text text-anchor="start" x="1681.5" y="-451.8" font-family="Times,serif" font-size="14.00">created_at :datetime</text>
<text text-anchor="start" x="1681.5" y="-436.8" font-family="Times,serif" font-size="14.00">updated_at :datetime</text>
<text text-anchor="start" x="1681.5" y="-421.8" font-family="Times,serif" font-size="14.00">level :integer</text>
<text text-anchor="start" x="1681.5" y="-406.8" font-family="Times,serif" font-size="14.00">helmet :string</text>
<text text-anchor="start" x="1681.5" y="-391.8" font-family="Times,serif" font-size="14.00">armor :string</text>
<text text-anchor="start" x="1681.5" y="-376.8" font-family="Times,serif" font-size="14.00">shield :string</text>
<text text-anchor="start" x="1681.5" y="-361.8" font-family="Times,serif" font-size="14.00">weapon :string</text>
<text text-anchor="start" x="1681.5" y="-346.8" font-family="Times,serif" font-size="14.00">correct :integer</text>
<text text-anchor="start" x="1681.5" y="-331.8" font-family="Times,serif" font-size="14.00">wrong :integer</text>
</g>
<!-- Item -->
<g id="node14" class="node"><title>Item</title>
<path fill="none" stroke="black" d="M353.5,-143.5C353.5,-143.5 460.5,-143.5 460.5,-143.5 466.5,-143.5 472.5,-149.5 472.5,-155.5 472.5,-155.5 472.5,-267.5 472.5,-267.5 472.5,-273.5 466.5,-279.5 460.5,-279.5 460.5,-279.5 353.5,-279.5 353.5,-279.5 347.5,-279.5 341.5,-273.5 341.5,-267.5 341.5,-267.5 341.5,-155.5 341.5,-155.5 341.5,-149.5 347.5,-143.5 353.5,-143.5"/>
<text text-anchor="middle" x="407" y="-264.3" font-family="Times,serif" font-size="14.00">Item</text>
<polyline fill="none" stroke="black" points="341.5,-256.5 472.5,-256.5 "/>
<text text-anchor="start" x="349.5" y="-241.3" font-family="Times,serif" font-size="14.00">id :integer</text>
<text text-anchor="start" x="349.5" y="-226.3" font-family="Times,serif" font-size="14.00">name :string</text>
<text text-anchor="start" x="349.5" y="-211.3" font-family="Times,serif" font-size="14.00">img :string</text>
<text text-anchor="start" x="349.5" y="-196.3" font-family="Times,serif" font-size="14.00">price :integer</text>
<text text-anchor="start" x="349.5" y="-181.3" font-family="Times,serif" font-size="14.00">created_at :datetime</text>
<text text-anchor="start" x="349.5" y="-166.3" font-family="Times,serif" font-size="14.00">updated_at :datetime</text>
<text text-anchor="start" x="349.5" y="-151.3" font-family="Times,serif" font-size="14.00">part :string</text>
</g>
<!-- Item&#45;&gt;LineItem -->
<g id="edge4" class="edge"><title>Item&#45;&gt;LineItem</title>
<path fill="none" stroke="#690e6c" d="M442.362,-135.954C445.49,-129.358 448.635,-122.729 451.705,-116.256"/>
<ellipse fill="none" stroke="#690e6c" cx="440.526" cy="-139.823" rx="4.00002" ry="4.00002"/>
<polygon fill="#690e6c" stroke="#690e6c" points="451.854,-115.942 460.206,-108.836 453.997,-111.424 456.14,-106.907 456.14,-106.907 456.14,-106.907 453.997,-111.424 452.075,-104.978 451.854,-115.942 451.854,-115.942"/>
</g>
</g>
</svg>
