<?xml version="1.0" encoding="UTF-8" standalone="no"?>
<!DOCTYPE svg PUBLIC "-//W3C//DTD SVG 1.1//EN"
 "http://www.w3.org/Graphics/SVG/1.1/DTD/svg11.dtd">
<!-- Generated by graphviz version 2.38.0 (20140413.2041)
 -->
<!-- Title: models_diagram Pages: 1 -->
<svg width="1397pt" height="230pt"
 viewBox="0.00 0.00 1396.85 230.00" xmlns="http://www.w3.org/2000/svg" xmlns:xlink="http://www.w3.org/1999/xlink">
<g id="graph0" class="graph" transform="scale(1 1) rotate(0) translate(4 226)">
<title>models_diagram</title>
<polygon fill="none" stroke="none" points="-4,4 -4,-226 1392.85,-226 1392.85,4 -4,4"/>
<!-- _diagram_info -->
<g id="node1" class="node"><title>_diagram_info</title>
<text text-anchor="start" x="8" y="-207.6" font-family="Times,serif" font-size="13.00">Models diagram</text>
<text text-anchor="start" x="8" y="-193.6" font-family="Times,serif" font-size="13.00">Date: Jun 05 2016 &#45; 17:27</text>
<text text-anchor="start" x="8" y="-179.6" font-family="Times,serif" font-size="13.00">Migration version: 20160522201610</text>
<text text-anchor="start" x="8" y="-165.6" font-family="Times,serif" font-size="13.00">Generated by RailRoady 1.3.1</text>
<text text-anchor="start" x="8" y="-151.6" font-family="Times,serif" font-size="13.00">http://railroady.prestonlee.com</text>
</g>
<!-- ObjectiveTextual -->
<g id="node2" class="node"><title>ObjectiveTextual</title>
<ellipse fill="none" stroke="black" cx="303" cy="-183" rx="71.4873" ry="18"/>
<text text-anchor="middle" x="303" y="-179.3" font-family="Times,serif" font-size="14.00">ObjectiveTextual</text>
</g>
<!-- DragDrop -->
<g id="node3" class="node"><title>DragDrop</title>
<ellipse fill="none" stroke="black" cx="439" cy="-183" rx="46.2923" ry="18"/>
<text text-anchor="middle" x="439" y="-179.3" font-family="Times,serif" font-size="14.00">DragDrop</text>
</g>
<!-- Inventory -->
<g id="node4" class="node"><title>Inventory</title>
<ellipse fill="none" stroke="black" cx="474" cy="-90" rx="44.6926" ry="18"/>
<text text-anchor="middle" x="474" y="-86.3" font-family="Times,serif" font-size="14.00">Inventory</text>
</g>
<!-- LineItem -->
<g id="node15" class="node"><title>LineItem</title>
<ellipse fill="none" stroke="black" cx="429" cy="-18" rx="43.5923" ry="18"/>
<text text-anchor="middle" x="429" y="-14.3" font-family="Times,serif" font-size="14.00">LineItem</text>
</g>
<!-- Inventory&#45;&gt;LineItem -->
<g id="edge1" class="edge"><title>Inventory&#45;&gt;LineItem</title>
<path fill="none" stroke="#9689dc" d="M458.909,-65.5255C454.452,-58.5919 449.558,-50.9789 445.043,-43.9555"/>
<ellipse fill="none" stroke="#9689dc" cx="461.173" cy="-69.0463" rx="4.00002" ry="4.00002"/>
<polygon fill="#9689dc" stroke="#9689dc" points="444.995,-43.8817 443.373,-33.0365 442.292,-39.6758 439.588,-35.4699 439.588,-35.4699 439.588,-35.4699 442.292,-39.6758 435.803,-37.9034 444.995,-43.8817 444.995,-43.8817"/>
</g>
<!-- Question -->
<g id="node5" class="node"><title>Question</title>
<ellipse fill="none" stroke="black" cx="618" cy="-183" rx="42.4939" ry="18"/>
<text text-anchor="middle" x="618" y="-179.3" font-family="Times,serif" font-size="14.00">Question</text>
</g>
<!-- ObjectiveImage -->
<g id="node6" class="node"><title>ObjectiveImage</title>
<ellipse fill="none" stroke="black" cx="746" cy="-183" rx="67.6881" ry="18"/>
<text text-anchor="middle" x="746" y="-179.3" font-family="Times,serif" font-size="14.00">ObjectiveImage</text>
</g>
<!-- SubjectiveTextual -->
<g id="node7" class="node"><title>SubjectiveTextual</title>
<ellipse fill="none" stroke="black" cx="906" cy="-183" rx="74.9875" ry="18"/>
<text text-anchor="middle" x="906" y="-179.3" font-family="Times,serif" font-size="14.00">SubjectiveTextual</text>
</g>
<!-- DoneLesson -->
<g id="node8" class="node"><title>DoneLesson</title>
<ellipse fill="none" stroke="black" cx="1053" cy="-183" rx="54.6905" ry="18"/>
<text text-anchor="middle" x="1053" y="-179.3" font-family="Times,serif" font-size="14.00">DoneLesson</text>
</g>
<!-- Lesson -->
<g id="node9" class="node"><title>Lesson</title>
<ellipse fill="none" stroke="black" cx="1161" cy="-183" rx="35.9954" ry="18"/>
<text text-anchor="middle" x="1161" y="-179.3" font-family="Times,serif" font-size="14.00">Lesson</text>
</g>
<!-- User -->
<g id="node10" class="node"><title>User</title>
<ellipse fill="none" stroke="black" cx="530" cy="-183" rx="27.0966" ry="18"/>
<text text-anchor="middle" x="530" y="-179.3" font-family="Times,serif" font-size="14.00">User</text>
</g>
<!-- User&#45;&gt;Inventory -->
<g id="edge2" class="edge"><title>User&#45;&gt;Inventory</title>
<path fill="none" stroke="#66f818" d="M515.955,-159.176C507.549,-145.517 496.888,-128.194 488.417,-114.428"/>
<ellipse fill="none" stroke="#66f818" cx="518.149" cy="-162.742" rx="4.00002" ry="4.00002"/>
<ellipse fill="#66f818" stroke="#66f818" cx="486.307" cy="-110.998" rx="4.00002" ry="4.00002"/>
</g>
<!-- LineBadge -->
<g id="node13" class="node"><title>LineBadge</title>
<ellipse fill="none" stroke="black" cx="586" cy="-90" rx="49.2915" ry="18"/>
<text text-anchor="middle" x="586" y="-86.3" font-family="Times,serif" font-size="14.00">LineBadge</text>
</g>
<!-- User&#45;&gt;LineBadge -->
<g id="edge3" class="edge"><title>User&#45;&gt;LineBadge</title>
<path fill="none" stroke="#6ac0ee" d="M544.017,-159.222C551.983,-146.278 561.98,-130.032 570.22,-116.642"/>
<ellipse fill="none" stroke="#6ac0ee" cx="541.851" cy="-162.742" rx="4.00002" ry="4.00002"/>
<polygon fill="#6ac0ee" stroke="#6ac0ee" points="570.357,-116.42 579.431,-110.262 572.978,-112.161 575.598,-107.903 575.598,-107.903 575.598,-107.903 572.978,-112.161 571.766,-105.545 570.357,-116.42 570.357,-116.42"/>
</g>
<!-- Badge -->
<g id="node11" class="node"><title>Badge</title>
<ellipse fill="none" stroke="black" cx="1248" cy="-183" rx="33.2948" ry="18"/>
<text text-anchor="middle" x="1248" y="-179.3" font-family="Times,serif" font-size="14.00">Badge</text>
</g>
<!-- Character -->
<g id="node12" class="node"><title>Character</title>
<ellipse fill="none" stroke="black" cx="1344" cy="-183" rx="44.6926" ry="18"/>
<text text-anchor="middle" x="1344" y="-179.3" font-family="Times,serif" font-size="14.00">Character</text>
</g>
<!-- Item -->
<g id="node14" class="node"><title>Item</title>
<ellipse fill="none" stroke="black" cx="384" cy="-90" rx="27.0966" ry="18"/>
<text text-anchor="middle" x="384" y="-86.3" font-family="Times,serif" font-size="14.00">Item</text>
</g>
<!-- Item&#45;&gt;LineItem -->
<g id="edge4" class="edge"><title>Item&#45;&gt;LineItem</title>
<path fill="none" stroke="#a6840d" d="M398.644,-66.2205C403.122,-59.2551 408.074,-51.5513 412.657,-44.4219"/>
<ellipse fill="none" stroke="#a6840d" cx="396.374" cy="-69.7512" rx="4.00002" ry="4.00002"/>
<polygon fill="#a6840d" stroke="#a6840d" points="412.794,-44.2091 421.987,-38.2308 415.498,-40.0032 418.202,-35.7973 418.202,-35.7973 418.202,-35.7973 415.498,-40.0032 414.416,-33.3639 412.794,-44.2091 412.794,-44.2091"/>
</g>
</g>
</svg>
